<svg xmlns="http://www.w3.org/2000/svg" width="1083" height="424" viewBox="0 0 1083 424" role="img" aria-label="Tất cả mọi thứ về Tunna Duong">
  <defs>
    <linearGradient id="bg" x1="0" y1="0" x2="1" y2="1">
      <stop offset="0%" stop-color="#cfe8ee" />
      <stop offset="55%" stop-color="#d9ece6" />
      <stop offset="100%" stop-color="#e9e3da" />
    </linearGradient>
  </defs>
  <rect width="1083" height="424" fill="url(#bg)" />
  <g opacity="0.25" fill="#ffffff">
    <rect x="60" y="40" width="260" height="260" transform="rotate(45 190 170)" />
    <rect x="390" y="-60" width="260" height="260" transform="rotate(45 520 70)" />
    <rect x="700" y="50" width="260" height="260" transform="rotate(45 830 180)" />
  </g>
  <g transform="translate(490 70)">
    <path d="M0 0h98a10 10 0 0 1 10 10v86c0 24-20 44-44 44H10a10 10 0 0 1-10-10V10A10 10 0 0 1 10 0Z" fill="none" stroke="#111" stroke-width="8" />
    <text x="52" y="85" font-family="Arial, Helvetica, sans-serif" font-size="92" font-weight="700" text-anchor="middle" fill="#111">t</text>
  </g>
  <text x="541" y="250" font-family="Arial, Helvetica, sans-serif" font-size="34" text-anchor="middle" fill="#1c1c1c">Tất cả mọi thứ về</text>
  <text x="541" y="310" font-family="Arial, Helvetica, sans-serif" font-size="56" font-weight="700" text-anchor="middle" fill="#0f0f0f">Tunna Duong</text>
</svg>
